<?xml version="1.0" encoding="utf-8"?>
<!-- Generator: Adobe Illustrator 19.1.0, SVG Export Plug-In . SVG Version: 6.00 Build 0)  -->
<svg version="1.1" id="Layer_1" xmlns="http://www.w3.org/2000/svg" xmlns:xlink="http://www.w3.org/1999/xlink" x="0px" y="0px" width="313.1" height="250.2"
	 viewBox="0 -37.5 313.1 250.2" style="enable-background:new 0 -37.5 313.1 250.2;" xml:space="preserve">
<style type="text/css">
	.st0{opacity:0.25;fill:none;stroke:#000000;stroke-miterlimit:10;enable-background:new    ;}
	.st1{opacity:0.25;fill:none;stroke:#000000;stroke-width:0.25;stroke-miterlimit:10;enable-background:new    ;}
	.st2{fill:none;stroke:#231F20;stroke-width:1.8;stroke-linecap:round;stroke-linejoin:round;stroke-miterlimit:10;}
</style>
<g>
	<polygon class="st0" points="297.6,166.5 202.6,163.5 156.6,162 95.6,164.5 86.6,173.5 78.1,164.5 24.6,166.5 19.6,85.5 6.6,7.5
		68.6,7.5 158.6,2.5 239.6,9.5 306.6,3.5 295.6,86.5 	"/>
</g>
<line class="st1" x1="239.6" y1="9.5" x2="295.6" y2="86.5"/>
<line class="st1" x1="295.6" y1="86.5" x2="202.6" y2="163.5"/>
<line class="st1" x1="68.6" y1="7.5" x2="19.6" y2="85.5"/>
<line class="st1" x1="295.6" y1="86.5" x2="158.6" y2="2.5"/>
<line class="st2" x1="170" y1="12" x2="170" y2="92"/>
<line class="st2" x1="161" y1="-6" x2="161" y2="129"/>
<line class="st2" x1="152" y1="12" x2="152" y2="92"/>
</svg>
