<?xml version="1.0" encoding="utf-8"?>
<!-- Generator: Adobe Illustrator 19.1.0, SVG Export Plug-In . SVG Version: 6.00 Build 0)  -->
<svg version="1.1" id="Layer_1" xmlns="http://www.w3.org/2000/svg" xmlns:xlink="http://www.w3.org/1999/xlink" x="0px" y="0px" width="313.1" height="250.2"
	 viewBox="0 -37.5 313.1 250.2" style="enable-background:new 0 -37.5 313.1 250.2;" xml:space="preserve">
<style type="text/css">
	.st0{opacity:0.25;fill:none;stroke:#000000;stroke-linejoin:round;stroke-miterlimit:10;enable-background:new    ;}

		.st1{opacity:0.25;fill:none;stroke:#000000;stroke-width:0.25;stroke-linejoin:round;stroke-miterlimit:10;enable-background:new    ;}
	.st2{fill:none;stroke:#231F20;stroke-width:1.8;stroke-linecap:round;stroke-linejoin:round;stroke-miterlimit:10;}
</style>
<polygon class="st0" points="119.2,155.5 140,155 147.5,162.2 154.2,153.8 187.8,153 228,81.5 197.8,18 151.8,13.5 84.5,84.5 "/>
<polyline class="st0" points="197.8,18 171,38 195.8,94.5 156.8,139.8 156.8,139.8 187.8,153 "/>
<polyline class="st0" points="151.8,13.5 165.2,30.8 162,87 108.5,92.8 137.5,147 119.2,155.5 "/>
<line class="st1" x1="195.8" y1="94.5" x2="228" y2="81.5"/>
<line class="st1" x1="165.2" y1="30.8" x2="108.5" y2="92.8"/>
<line class="st1" x1="84.5" y1="84.5" x2="108.5" y2="92.8"/>
<line class="st1" x1="197.8" y1="18" x2="195.8" y2="94.5"/>
<line class="st1" x1="115.2" y1="105.8" x2="160.4" y2="134.8"/>
<line class="st1" x1="163.5" y1="58.3" x2="178.8" y2="114.5"/>
<line class="st2" x1="180" y1="166.3" x2="180" y2="175.3"/>
<line class="st2" x1="171" y1="175.3" x2="171" y2="184.3"/>
<line class="st2" x1="162" y1="166.3" x2="162" y2="175.3"/>
</svg>
