<svg version="1.1" id="Layer_1" xmlns="http://www.w3.org/2000/svg" xmlns:xlink="http://www.w3.org/1999/xlink" x="0px" y="0px" width="313.1" height="250.2"
	 viewBox="0 -37.5 313.1 250.2" style="enable-background:new 0 -37.5 313.1 250.2;" xml:space="preserve">
<style type="text/css">
	.st0{display:none;opacity:0.25;fill:none;stroke:#000000;stroke-miterlimit:10;enable-background:new    ;}
	.st1{opacity:0.25;fill:none;stroke:#000000;stroke-miterlimit:10;enable-background:new    ;}
	.st2{opacity:0.25;fill:none;stroke:#000000;stroke-width:0.25;stroke-miterlimit:10;}
	.st3{fill:none;stroke:#231F20;stroke-width:1.8;stroke-linecap:round;stroke-linejoin:round;stroke-miterlimit:10;}
</style>
<g id="Layer_1_1_">
	<polygon class="st0" points="307.5,162.5 235.5,162.5 154.5,162.5 82.5,162.5 1.5,162.5 1.5,81.5 1.5,9.5 73.5,9.5 154.5,9.5
		235.5,9.5 307.5,9.5 307.5,81.5 	"/>
	<g>
		<polygon class="st1" points="310.5,163.5 235.5,164.5 154.5,162.6 91.5,163.5 82.5,172.5 74,163.5 2.5,162.5 2.5,73.5 4.5,4.5
			73.5,5.5 154.5,2.5 235.5,5.5 309.5,7.5 308.5,73.5 		"/>
	</g>
	<line class="st2" x1="235.5" y1="5.5" x2="308.5" y2="73.5"/>
	<line class="st2" x1="308.5" y1="73.5" x2="235.5" y2="164.5"/>
	<line class="st2" x1="73.5" y1="5.5" x2="2.5" y2="73.5"/>
</g>
<g id="Layer_2">
</g>
<line class="st3" x1="169.2" y1="-24.8" x2="169.2" y2="-15.8"/>
<line class="st3" x1="160.2" y1="-33.8" x2="160.2" y2="-24.8"/>
<line class="st3" x1="151.2" y1="-24.8" x2="151.2" y2="-15.8"/>
</svg>
