<?xml version="1.0" encoding="utf-8"?>
<!-- Generator: Adobe Illustrator 19.1.0, SVG Export Plug-In . SVG Version: 6.00 Build 0)  -->
<svg version="1.1" id="Layer_1" xmlns="http://www.w3.org/2000/svg" xmlns:xlink="http://www.w3.org/1999/xlink" x="0px" y="0px" width="313.1" height="250.2"
	 viewBox="0 -37.5 313.1 250.2" style="enable-background:new 0 -37.5 313.1 250.2;" xml:space="preserve">
<style type="text/css">

		.st0{opacity:0.25;fill:none;stroke:#000000;stroke-linecap:round;stroke-linejoin:round;stroke-miterlimit:10;enable-background:new    ;}

		.st1{opacity:0.25;fill:none;stroke:#000000;stroke-width:0.25;stroke-linecap:round;stroke-linejoin:round;stroke-miterlimit:10;enable-background:new    ;}
</style>
<polyline class="st0" points="135.6,154.2 95.5,110.1 108.8,39.2 154.3,31.3 174.1,35.4 199.6,18.5 "/>
<polyline class="st0" points="147.5,76.3 153.5,40.6 108.8,39.2 "/>
<polyline class="st0" points="135.6,154.2 174.4,156.5 158,135.2 153.2,129 "/>
<line class="st1" x1="155.1" y1="59.9" x2="199.4" y2="147.7"/>
<line class="st1" x1="155.1" y1="59.9" x2="159.1" y2="132.4"/>
<polyline class="st0" points="199.4,147.7 159.1,132.4 130.1,114.9 155.1,59.9 199.6,18.5 218.8,56.1 199.4,147.7 164.5,143.1 "/>
<path class="st0" d="M154.3,31.3"/>
<line class="st1" x1="152.8" y1="41" x2="96" y2="109.7"/>
<line class="st1" x1="158" y1="135.2" x2="135.6" y2="154.2"/>
<line class="st1" x1="159.8" y1="55.5" x2="154.3" y2="31.3"/>
<line class="st1" x1="155.1" y1="59.9" x2="218.8" y2="56.1"/>
<line class="st1" x1="96" y1="109.7" x2="158" y2="135.2"/>
<line class="st1" x1="174.1" y1="35.4" x2="173.6" y2="42.2"/>
</svg>
