<?xml version="1.0" encoding="utf-8"?>
<!-- Generator: Adobe Illustrator 19.1.0, SVG Export Plug-In . SVG Version: 6.00 Build 0)  -->
<svg version="1.1" id="Layer_1" xmlns="http://www.w3.org/2000/svg" xmlns:xlink="http://www.w3.org/1999/xlink" x="0px" y="0px" width="313.1" height="250.2"
	 viewBox="0 -37.5 313.1 250.2" style="enable-background:new 0 -37.5 313.1 250.2;" xml:space="preserve">
<style type="text/css">

		.st0{opacity:0.25;fill:none;stroke:#000000;stroke-linecap:round;stroke-linejoin:round;stroke-miterlimit:10;enable-background:new    ;}

		.st1{opacity:0.25;fill:none;stroke:#000000;stroke-width:0.25;stroke-linecap:round;stroke-linejoin:round;stroke-miterlimit:10;enable-background:new    ;}
</style>
<polygon class="st0" points="147,62.5 147.8,79.4 165.1,82.4 174,69.2 "/>
<polyline class="st0" points="147,62.5 132.5,82.6 135.4,97.9 152.9,113 181.1,97 174,69.2 168.8,84.2 162.2,84.1 159,91.8
	152.6,81.8 150.9,80.1 "/>
<line class="st1" x1="148" y1="79" x2="173.5" y2="69.5"/>
<line class="st1" x1="168.8" y1="84.2" x2="159" y2="91.8"/>
<line class="st1" x1="159" y1="91.8" x2="181.1" y2="97"/>
<line class="st1" x1="168.8" y1="84.2" x2="181.1" y2="97"/>
<line class="st1" x1="159" y1="91.8" x2="152.9" y2="113"/>
<line class="st1" x1="132.5" y1="82.6" x2="152.9" y2="113"/>
<line class="st1" x1="132.6" y1="83" x2="159" y2="91.8"/>
<line class="st1" x1="132.6" y1="83" x2="152.2" y2="81.8"/>
<line class="st0" x1="147.2" y1="70" x2="132.6" y2="83"/>
</svg>
