<?xml version="1.0" encoding="utf-8"?>
<!-- Generator: Adobe Illustrator 19.1.0, SVG Export Plug-In . SVG Version: 6.00 Build 0)  -->
<svg version="1.1" id="Layer_1" xmlns="http://www.w3.org/2000/svg" xmlns:xlink="http://www.w3.org/1999/xlink" x="0px" y="0px" width="313.1" height="250.2"
	 viewBox="0 -37.5 313.1 250.2" style="enable-background:new 0 -37.5 313.1 250.2;" xml:space="preserve">
<style type="text/css">
	.st0{opacity:0.25;fill:none;stroke:#000000;stroke-miterlimit:10;enable-background:new    ;}
	.st1{opacity:0.25;fill:none;stroke:#000000;stroke-width:0.25;stroke-miterlimit:10;enable-background:new    ;}
	.st2{fill:none;stroke:#231F20;stroke-width:1.8;stroke-linecap:round;stroke-linejoin:round;stroke-miterlimit:10;}
</style>
<g>
	<polygon class="st0" points="260.6,160.6 188.6,151.6 125.6,157.6 116.6,166.6 108.1,157.6 53.6,160.6 38.6,81.6 82.1,66.1
		107.6,10.6 152.5,15.5 228.6,7.6 221.1,50.1 273.6,79.6 263.6,117.6 	"/>
</g>
<line class="st0" x1="228.6" y1="7.6" x2="274.1" y2="79.6"/>
<line class="st0" x1="107.6" y1="11.1" x2="38.6" y2="81.6"/>
<line class="st1" x1="263.6" y1="117.6" x2="188.6" y2="151.6"/>
<line class="st1" x1="188.6" y1="151.6" x2="38.6" y2="81.6"/>
<line class="st1" x1="274.1" y1="79.6" x2="188.6" y2="151.6"/>
<line class="st1" x1="152.5" y1="15.5" x2="188.6" y2="151.6"/>
<line class="st2" x1="170.5" y1="171.2" x2="170.5" y2="189.2"/>
<line class="st2" x1="161.5" y1="180.2" x2="161.5" y2="198.2"/>
<line class="st2" x1="152.5" y1="171.2" x2="152.5" y2="189.2"/>
</svg>
