<?xml version="1.0" encoding="utf-8"?>
<!-- Generator: Adobe Illustrator 19.1.0, SVG Export Plug-In . SVG Version: 6.00 Build 0)  -->
<svg version="1.1" id="Layer_1" xmlns="http://www.w3.org/2000/svg" xmlns:xlink="http://www.w3.org/1999/xlink" x="0px" y="0px" width="313.1" height="250.2"
	 viewBox="0 -37.5 313.1 250.2" style="enable-background:new 0 -37.5 313.1 250.2;" xml:space="preserve">
<style type="text/css">

		.st0{opacity:0.25;fill:none;stroke:#000000;stroke-width:0.25;stroke-linecap:round;stroke-linejoin:round;stroke-miterlimit:10;enable-background:new    ;}

		.st1{opacity:0.25;fill:none;stroke:#000000;stroke-linecap:round;stroke-linejoin:round;stroke-miterlimit:10;enable-background:new    ;}
</style>
<line class="st0" x1="159.7" y1="78.2" x2="165.8" y2="83"/>
<polyline class="st1" points="159.8,78.8 155.5,67 174.2,51 195.5,92 174,120.2 149,124.8 151.2,93.5 159.8,78.8 "/>
<line class="st1" x1="117.5" y1="101.8" x2="149" y2="124.8"/>
<line class="st0" x1="147" y1="101" x2="117.5" y2="101.8"/>
<polyline class="st1" points="174.2,51 144.2,59.5 158,50.5 130.5,57.8 153,69 146.8,101 "/>
<line class="st1" x1="129.8" y1="57.8" x2="117.5" y2="101.8"/>
<line class="st0" x1="155.5" y1="67" x2="165.8" y2="83"/>
<line class="st0" x1="166" y1="82.5" x2="151.2" y2="93.5"/>
<line class="st0" x1="165.8" y1="83" x2="195.5" y2="92"/>
<line class="st0" x1="174.2" y1="51" x2="165.8" y2="83"/>
<line class="st0" x1="165.8" y1="83" x2="149" y2="124.8"/>
<line class="st0" x1="149" y1="124.8" x2="194.2" y2="92.5"/>
<line class="st1" x1="139.4" y1="109.1" x2="149" y2="124.8"/>
<line class="st1" x1="147" y1="101" x2="139.4" y2="109.1"/>
<line class="st0" x1="129.8" y1="57.8" x2="147" y2="101"/>
<line class="st1" x1="139.5" y1="109" x2="150" y2="108.2"/>
<line class="st1" x1="147.8" y1="108.5" x2="146.8" y2="101"/>
<line class="st1" x1="151.1" y1="77.5" x2="154.5" y2="86.5"/>
<line class="st1" x1="144.2" y1="59.5" x2="146.6" y2="65.8"/>
<line class="st1" x1="158" y1="50.5" x2="161.2" y2="54.5"/>
</svg>
